<?xml version="1.0" standalone="no"?>
<!DOCTYPE svg PUBLIC "-//W3C//DTD SVG 20010904//EN"
 "http://www.w3.org/TR/2001/REC-SVG-20010904/DTD/svg10.dtd">
<svg version="1.0" xmlns="http://www.w3.org/2000/svg"
 width="533.000000pt" height="533.000000pt" viewBox="0 0 533.000000 533.000000"
 preserveAspectRatio="xMidYMid meet">
<metadata>
Created by potrace 1.11, written by Peter Selinger 2001-2013
</metadata>
<g transform="translate(0.000000,533.000000) scale(0.100000,-0.100000)"
fill="#000000" stroke="none">
<path d="M2792 4877 c-23 -13 -36 -16 -45 -9 -24 21 -82 24 -127 7 -45 -16
-119 -21 -175 -10 -38 7 -91 -2 -107 -18 -38 -37 -109 -77 -130 -73 -112 23
-149 27 -205 22 -78 -7 -125 -33 -147 -81 -9 -19 -23 -51 -32 -70 -9 -19 -24
-37 -35 -40 -23 -7 -25 -38 -4 -55 35 -29 29 -50 -32 -109 -45 -43 -66 -72
-82 -116 -30 -80 -34 -169 -9 -237 31 -86 31 -87 16 -84 -7 1 -18 5 -25 9 -6
4 -14 3 -17 -2 -3 -5 -35 -2 -73 6 -38 8 -74 16 -82 16 -19 3 -30 -42 -18 -73
13 -34 16 -148 5 -185 -22 -73 -21 -83 13 -104 18 -11 36 -18 40 -15 5 3 30
-5 56 -17 55 -25 136 -27 174 -3 6 3 23 -6 38 -20 18 -17 45 -29 77 -35 53 -8
124 -38 124 -52 0 -5 7 -9 15 -9 8 0 15 -5 15 -11 0 -15 -33 -69 -42 -69 -12
0 -10 -28 2 -35 18 -11 48 5 54 28 3 12 11 30 18 39 12 17 15 17 43 2 16 -8
38 -13 47 -11 13 4 20 -2 24 -21 22 -102 74 -207 106 -218 10 -3 25 -12 34
-21 9 -9 31 -17 49 -18 45 -3 56 -11 46 -38 -4 -12 -9 -92 -9 -177 -1 -85 -1
-167 -2 -182 0 -21 -19 -43 -100 -109 -55 -46 -98 -85 -95 -87 2 -2 17 5 34
17 50 36 126 43 160 15 2 -2 5 -31 7 -65 3 -34 7 -65 9 -70 3 -4 1 -10 -5 -14
-6 -4 -8 -11 -4 -16 6 -10 10 -80 14 -224 3 -105 2 -113 -20 -120 -11 -3 -20
-13 -20 -22 0 -19 -31 -76 -48 -86 -7 -5 -10 -12 -7 -17 3 -5 -4 -14 -15 -20
-11 -6 -18 -15 -15 -21 4 -5 3 -14 -1 -21 -9 -14 -12 -98 -4 -98 3 0 6 -8 7
-17 5 -50 10 -64 26 -84 10 -11 16 -24 13 -27 -4 -3 4 -16 16 -29 12 -12 19
-26 15 -29 -4 -4 5 -20 18 -36 14 -16 23 -34 20 -38 -3 -5 3 -23 14 -41 18
-29 18 -33 4 -48 -23 -22 -63 -42 -74 -35 -5 3 -23 26 -41 52 -17 26 -44 61
-58 78 -24 27 -27 39 -25 90 1 33 6 75 9 94 6 28 2 41 -18 69 -15 19 -26 31
-26 26 0 -5 -7 0 -15 11 -8 10 -15 15 -15 10 0 -5 -9 -1 -21 10 -12 10 -23 18
-25 17 -2 -2 -5 -3 -6 -2 -2 0 -14 2 -28 5 -24 4 -64 40 -72 65 -2 7 -26 13
-55 14 -38 2 -50 -1 -46 -11 6 -16 -58 2 -138 39 -80 36 -110 46 -150 51 -34
4 -136 43 -184 69 -11 6 -22 12 -25 12 -3 1 -23 9 -45 19 -42 18 -81 17 -130
-3 -32 -14 -89 -16 -135 -6 -23 5 -30 2 -35 -14 -4 -13 -11 -18 -22 -14 -12 5
-15 2 -10 -10 5 -12 1 -17 -13 -17 -11 0 -20 -7 -20 -15 0 -8 -7 -15 -16 -15
-10 0 -14 -6 -10 -15 3 -8 1 -15 -5 -15 -6 0 -26 -7 -44 -16 l-33 -16 21 -21
c18 -18 34 -21 112 -23 81 -1 145 -12 200 -34 11 -5 47 -12 80 -15 33 -4 92
-13 130 -21 90 -19 86 -18 180 -44 44 -12 92 -25 107 -27 15 -3 30 -14 33 -24
4 -10 11 -19 16 -19 5 0 9 -12 9 -27 0 -14 3 -24 6 -20 8 8 33 -16 27 -25 -2
-5 0 -8 5 -8 5 0 12 -9 15 -21 3 -12 10 -18 16 -14 6 3 14 -1 17 -9 3 -9 9
-16 13 -16 16 0 105 -94 106 -112 2 -21 -20 -43 -34 -34 -5 4 -12 2 -16 -4 -4
-6 -12 -7 -18 -3 -7 4 -16 8 -22 8 -24 2 -65 30 -71 48 -3 10 -9 15 -13 11 -7
-8 -25 -64 -37 -113 -2 -9 -8 -33 -13 -55 -5 -21 -7 -45 -4 -52 3 -8 1 -14 -4
-14 -5 0 -10 -7 -10 -15 0 -8 4 -15 8 -15 4 0 6 -18 5 -41 -1 -22 1 -42 6 -45
5 -3 6 -9 3 -14 -3 -5 0 -21 5 -36 6 -15 13 -39 15 -53 6 -38 11 -55 32 -108
4 -10 7 -23 8 -29 0 -6 13 -22 28 -36 15 -14 27 -30 27 -37 0 -6 11 -11 24
-11 13 0 29 -7 36 -15 7 -8 17 -15 22 -15 5 0 16 -6 23 -13 36 -32 46 -38 54
-33 5 3 20 -3 34 -14 14 -11 30 -20 35 -20 5 0 13 -7 16 -16 3 -9 15 -14 28
-12 17 2 24 -3 26 -18 2 -16 8 -20 23 -17 10 3 19 0 19 -6 0 -6 9 -11 20 -11
11 0 20 -4 20 -10 0 -5 11 -10 24 -10 14 0 28 -4 31 -10 6 -9 40 -7 105 6 29
5 28 20 16 -186 l-4 -75 -49 -44 c-26 -24 -40 -38 -31 -32 9 7 31 15 48 17
l31 5 -4 -93 c-2 -51 -1 -103 4 -116 5 -13 10 -50 10 -83 l2 -59 38 0 38 0 -2
183 c-3 228 0 272 19 256 8 -6 14 -8 14 -3 0 5 9 -4 20 -21 11 -16 20 -26 20
-21 0 5 8 0 18 -11 19 -22 52 -37 52 -24 0 5 9 7 20 4 14 -4 20 0 20 12 0 14
3 15 14 6 11 -9 15 -8 20 6 4 11 10 13 14 7 11 -16 41 -24 48 -13 4 6 11 6 20
-2 11 -9 14 -8 14 4 0 14 3 14 27 2 16 -9 31 -11 38 -5 5 4 27 6 48 3 24 -3
37 -1 37 7 0 7 8 9 20 5 12 -4 20 -2 20 5 0 6 11 15 25 20 14 5 25 14 25 19 0
6 12 16 28 23 19 10 26 20 24 35 -2 13 4 24 15 27 10 4 29 24 42 46 13 21 37
44 54 51 33 14 107 80 107 96 0 6 7 14 16 17 8 3 13 10 9 15 -3 5 0 13 6 16 5
4 8 13 5 20 -2 7 2 22 10 33 12 17 12 21 -2 26 -9 3 -20 4 -25 0 -5 -3 -9 -2
-9 3 0 4 -19 9 -42 10 -23 2 -45 8 -49 14 -4 7 -14 9 -23 6 -9 -4 -19 1 -25
10 -5 10 -22 17 -42 17 -23 1 -34 6 -34 16 0 8 -7 16 -15 16 -8 1 -21 2 -28 3
-7 0 -10 6 -7 11 4 7 -3 9 -21 6 -15 -3 -33 -1 -40 5 -8 7 -14 7 -19 -1 -4 -7
-12 -7 -25 0 -13 7 -21 7 -26 -1 -4 -8 -9 -7 -15 2 -6 11 -9 10 -15 -4 -5 -14
-9 -15 -21 -5 -9 7 -17 8 -21 2 -7 -9 -27 -16 -49 -17 -7 0 -13 -4 -13 -9 0
-12 -26 -38 -32 -32 -12 12 -78 -79 -90 -124 -14 -52 -67 -122 -93 -122 -19 0
-20 -3 15 76 17 37 38 84 46 103 9 20 21 45 26 57 9 20 66 54 89 54 5 0 28 9
50 19 45 22 128 41 192 45 23 1 51 7 62 13 43 24 66 30 135 32 36 1 49 9 106
65 38 37 61 67 54 71 -5 3 -8 16 -6 28 10 51 19 77 26 72 9 -6 41 75 34 86 -3
5 -19 9 -36 9 -22 0 -38 -9 -58 -31 -23 -28 -32 -31 -66 -27 -36 4 -45 0 -106
-51 -36 -31 -85 -67 -109 -79 l-43 -23 -17 23 c-33 45 -59 71 -65 65 -4 -3
-13 1 -21 9 -12 11 -18 12 -29 3 -11 -9 -14 -9 -14 0 0 8 -8 10 -19 6 -11 -3
-29 -8 -41 -10 -11 -2 -35 -11 -52 -19 -17 -9 -34 -13 -38 -11 -5 3 -10 0 -12
-5 -2 -6 -18 2 -35 17 -18 15 -57 48 -87 72 -48 38 -56 49 -56 77 0 33 12 44
25 23 4 -6 14 -8 22 -5 9 4 22 1 29 -5 8 -6 20 -9 29 -6 8 4 17 2 20 -3 3 -5
23 -8 45 -7 22 2 40 -1 40 -5 0 -4 9 -8 19 -8 11 0 23 -5 26 -10 4 -7 13 -7
26 0 15 8 18 18 14 42 -3 17 -10 38 -14 47 -5 9 -9 40 -10 69 0 38 -7 63 -23
85 -26 37 -76 87 -88 87 -15 0 -100 105 -101 125 -1 24 -3 32 -30 115 -11 36
-25 74 -31 84 -6 11 -13 56 -16 101 -4 75 -3 82 14 84 56 7 87 2 133 -21 33
-18 48 -22 44 -12 -3 8 -11 14 -19 14 -7 0 -18 8 -23 18 -6 9 -11 14 -11 11 0
-6 -15 6 -117 97 l-32 29 -4 125 c-3 69 -6 130 -7 135 -1 6 -2 15 0 20 2 15 1
105 -3 146 -6 57 6 77 45 75 18 -2 48 -11 66 -20 19 -10 36 -15 40 -12 3 3 1
6 -4 6 -5 0 -27 16 -49 35 -22 20 -52 43 -67 52 -16 10 -29 24 -29 33 -6 77 9
277 22 301 5 10 16 20 24 20 8 1 21 2 28 3 6 1 20 -5 30 -13 18 -15 66 -18
120 -8 22 4 34 -2 67 -35 22 -23 40 -39 40 -36 0 4 21 0 46 -8 43 -13 48 -12
76 7 16 12 30 20 31 18 2 -2 15 -21 30 -41 16 -21 25 -38 21 -38 -3 0 -1 -7 6
-15 7 -8 18 -15 25 -15 7 0 27 -13 45 -30 18 -16 37 -30 42 -30 6 0 21 -12 34
-27 21 -25 24 -26 24 -8 0 11 -5 38 -12 60 -6 22 -11 43 -10 47 1 5 -7 19 -19
32 -12 13 -20 27 -19 31 1 4 -2 11 -7 14 -5 3 -20 22 -33 41 -12 19 -29 40
-36 45 -19 16 -19 36 0 78 9 21 14 42 11 47 -14 23 20 16 105 -22 119 -52 163
-54 225 -9 34 24 48 29 62 22 10 -5 37 -17 61 -25 l42 -16 35 36 c19 20 35 42
35 49 0 7 4 15 8 17 21 9 62 78 64 109 1 18 8 43 15 54 25 38 15 62 -52 127
l-65 62 23 25 c37 41 67 88 60 95 -3 3 -1 6 5 6 7 0 12 9 12 20 0 11 4 20 8
20 5 0 9 6 10 13 0 6 9 40 20 75 28 88 19 93 -135 83 -6 -1 -18 -7 -25 -14
-23 -23 -100 -69 -105 -63 -4 3 33 42 80 87 94 89 96 95 75 194 -12 52 -32 87
-83 143 -29 32 -89 75 -110 78 -5 1 -23 8 -40 15 -16 7 -43 14 -60 16 -40 6
-50 15 -64 63 -17 57 -70 109 -103 103 -18 -3 -35 3 -59 25 -34 29 -112 62
-149 62 -10 0 -34 14 -52 30 -18 17 -37 30 -43 31 -5 0 -17 2 -25 3 -8 2 -30
-6 -48 -17z m-361 -3429 c8 -27 3 -183 -5 -186 -5 -2 -15 12 -21 30 -7 18 -21
52 -30 75 l-18 42 29 25 c33 29 40 31 45 14z m-71 -120 c0 -6 -7 -5 -15 2 -8
7 -15 17 -15 22 0 6 7 5 15 -2 8 -7 15 -17 15 -22z m297 -106 c16 -9 15 -11
-10 -17 -15 -4 -24 -11 -21 -16 3 -5 0 -9 -6 -9 -9 0 -30 -38 -35 -65 -1 -5
-3 -12 -4 -15 -9 -19 -10 -80 -2 -85 6 -3 8 -12 5 -19 -3 -7 2 -19 10 -26 9
-7 13 -16 10 -21 -3 -5 0 -9 5 -9 6 0 11 -7 11 -15 0 -7 8 -18 17 -24 12 -6
14 -13 7 -23 -5 -7 -16 -31 -23 -53 -8 -22 -26 -66 -42 -97 -15 -32 -25 -58
-22 -58 4 0 -2 -9 -12 -20 -10 -11 -22 -17 -25 -13 -14 15 8 164 26 184 9 11
14 22 11 25 -3 4 0 19 8 33 8 16 10 33 5 41 -4 7 -6 19 -3 27 3 7 1 13 -5 13
-5 0 -13 10 -17 23 -4 12 -9 29 -12 37 -16 50 -9 94 14 85 12 -4 14 0 8 22 -3
15 -11 31 -16 34 -13 8 -23 69 -12 70 21 2 45 8 50 12 5 6 54 -7 80 -21z m-84
-638 c11 -11 -5 -34 -24 -34 -17 0 -18 3 -7 20 13 21 21 24 31 14z"/>
</g>
</svg>
